<svg xmlns="http://www.w3.org/2000/svg" width="32.7" height="32.126" viewBox="0 0 32.7 32.126">
  <g id="user-svgrepo-com_1_" data-name="user-svgrepo-com (1)" transform="translate(0 -0.518)">
    <path id="Path_5454" data-name="Path 5454" d="M48.317,46.575l-3.454-3.613a6.274,6.274,0,1,0-.855.781l3.473,3.632a.579.579,0,1,0,.836-.8Zm-13.16-7.809a5.09,5.09,0,1,1,5.09,5.09A5.1,5.1,0,0,1,35.157,38.766Z" transform="translate(-15.778 -14.91)" fill="#164396"/>
    <path id="Path_5455" data-name="Path 5455" d="M15.187,29.813c-.35,0-.7-.017-1.047-.043l-.18-.014c-.35-.031-.7-.072-1.044-.129l-.046-.008a14.021,14.021,0,0,1-2.148-.537l-.065-.022c-.347-.118-.691-.249-1.028-.394l-.007,0c-.319-.138-.632-.29-.942-.451-.04-.021-.081-.041-.121-.062C8.277,28,8,27.835,7.728,27.665l-.24-.154c-.251-.164-.5-.335-.739-.516l-.073-.057.053-.03L11.1,24.524a2.338,2.338,0,0,0,1.218-2.053V20.48l-.127-.154a9.232,9.232,0,0,1-1.657-3.436l-.05-.219-.188-.122a.916.916,0,0,1-.425-.769V13.821a.9.9,0,0,1,.308-.676l.182-.165V9.9l0-.072a3.331,3.331,0,0,1,.771-2.41c.8-.911,2.167-1.374,4.066-1.374s3.256.459,4.057,1.363a3.387,3.387,0,0,1,.78,2.422l0,3.151.182.165a.9.9,0,0,1,.308.676v1.959a.923.923,0,0,1-.652.871.552.552,0,0,0,.326,1.056,2.011,2.011,0,0,0,1.431-1.926V13.821a2.012,2.012,0,0,0-.49-1.309V9.932a4.46,4.46,0,0,0-1.04-3.241c-1.018-1.162-2.665-1.751-4.9-1.751s-3.879.589-4.9,1.751a4.461,4.461,0,0,0-1.04,3.241v2.58a2.015,2.015,0,0,0-.49,1.309v1.959A2.011,2.011,0,0,0,9.5,17.34a10.389,10.389,0,0,0,1.708,3.531v1.6a1.233,1.233,0,0,1-.642,1.082L6.2,25.937a3.991,3.991,0,0,0-.415.263A14.086,14.086,0,1,1,29.27,15.718a.552.552,0,1,0,1.1,0A15.187,15.187,0,1,0,4.93,26.915l-.015.013.493.416c.032.027.067.049.1.076.262.217.533.423.809.623.089.065.179.13.27.192q.442.305.907.579l.2.117c.339.193.684.375,1.038.542l.078.035a15.042,15.042,0,0,0,3.673,1.164l.1.018c.4.069.8.124,1.213.161l.15.012c.409.033.821.055,1.239.055a.553.553,0,0,0,0-1.105Z" fill="#164396"/>
  </g>
</svg>
