<svg xmlns="http://www.w3.org/2000/svg" width="24" height="20.535" viewBox="0 0 24 20.535">
  <path id="Path_5239" data-name="Path 5239" d="M90.994,70.5a1.465,1.465,0,0,1-1.465-1.461V67.425h-.961a.629.629,0,0,1-.629-.625V65.07a7.951,7.951,0,0,1-1.878-.781.035.035,0,0,0-.025-.011.035.035,0,0,0-.025.011l-1.219,1.219a.636.636,0,0,1-.89,0l-1.031-1.047a.629.629,0,0,1,0-.883L84.1,62.356a7.724,7.724,0,0,1-.762-1.894.038.038,0,0,0-.039-.039h-1.73a.629.629,0,0,1-.629-.625V58.337a.629.629,0,0,1,.629-.629H83.3a7.85,7.85,0,0,1,.8-1.878.047.047,0,0,0,0-.051l-1.226-1.218a.637.637,0,0,1,0-.887l1.035-1.035a.637.637,0,0,1,.887,0l1.222,1.23a7.368,7.368,0,0,1,1.894-.781.036.036,0,0,0,.035-.039V51.335a.629.629,0,0,1,.629-.629h1.461a.629.629,0,0,1,.625.629v1.73c0,.02.023.035.043.039a7.526,7.526,0,0,1,1.886.781l1.226-1.226h0a.625.625,0,0,1,.887,0l.945.929,5.5-2.343V50.9a.941.941,0,0,1,1.882,0v5.972a2.214,2.214,0,0,1,0,4.386v6.065a.941.941,0,1,1-1.882,0V66.91l-5.53-2.343-.93.93a.644.644,0,0,1-.886,0l-1.226-1.219c-.039-.039-.105.039-.152.059v4.687A1.464,1.464,0,0,1,90.994,70.5Zm-.879-3.074v1.613a.875.875,0,1,0,1.746,0V64.641a5.8,5.8,0,0,1-1.152.391.051.051,0,0,0-.039.039V66.8a.625.625,0,0,1-.57.621Zm11.642-.7v.605a.352.352,0,0,0,.355.355.355.355,0,0,0,.355-.355V50.9a.355.355,0,1,0-.711,0Zm-15.72-3.042a.621.621,0,0,1,.336.1,5.292,5.292,0,0,0,1.66.683.629.629,0,0,1,.492.613V66.8a.047.047,0,0,0,.043.039H90.03a.039.039,0,0,0,.039-.039V65.07a.641.641,0,0,1,.492-.613,5.248,5.248,0,0,0,1.664-.687.621.621,0,0,1,.781.086l1.226,1.222a.043.043,0,0,0,.059,0l1.015-1.015a.076.076,0,0,1,0-.024.035.035,0,0,0,0-.043l-1.219-1.222A.633.633,0,0,1,94,61.993a5.336,5.336,0,0,0,.687-1.656.633.633,0,0,1,.6-.5h1.73a.043.043,0,0,0,.043-.039V58.337a.047.047,0,0,0-.043-.043H95.29a.625.625,0,0,1-.609-.492,5.394,5.394,0,0,0-.687-1.66.621.621,0,0,1,.086-.781L95.3,54.139c.023-.027,0-.059,0-.082L94.291,53.05h0a.043.043,0,0,0-.059,0l-1.226,1.226h0a.621.621,0,0,1-.781.078,5.331,5.331,0,0,0-1.656-.683.632.632,0,0,1-.5-.609V51.335a.039.039,0,0,0-.01-.03.038.038,0,0,0-.029-.013H88.569a.047.047,0,0,0-.043.043v1.73a.625.625,0,0,1-.492.609,5.3,5.3,0,0,0-1.66.7.625.625,0,0,1-.781-.082l-1.222-1.226a.043.043,0,0,0-.059,0l-1.027,1.023a.043.043,0,0,0,0,.062l1.222,1.219h0a.625.625,0,0,1,.082.781,5.4,5.4,0,0,0-.687,1.66.625.625,0,0,1-.609.492H81.567a.047.047,0,0,0-.043.043V59.8a.043.043,0,0,0,.043.039H83.3a.633.633,0,0,1,.609.492,5.379,5.379,0,0,0,.687,1.664.625.625,0,0,1-.078.781l-1.23,1.219a.039.039,0,0,0,0,.055l1.031,1.031a.043.043,0,0,0,.062,0L85.6,63.86a.637.637,0,0,1,.441-.184Zm9.869.367,5.241,2.23V51.893l-5.241,2.222a.609.609,0,0,1-.184.441l-1.215,1.222a.035.035,0,0,0,0,.051,7.949,7.949,0,0,1,.781,1.878h1.73a.629.629,0,0,1,.629.629V59.8a.629.629,0,0,1-.629.625H95.29a7.947,7.947,0,0,1-.781,1.878.043.043,0,0,0,0,.059l1.215,1.219a.609.609,0,0,1,.184.465Zm7.132-6.577v3.2a1.632,1.632,0,0,0,0-3.2ZM89.3,63.09a4.026,4.026,0,1,1,2.847-1.184A4.026,4.026,0,0,1,89.3,63.09Zm0-7.459a3.44,3.44,0,1,0,2.425,1,3.441,3.441,0,0,0-2.425-1Z" transform="translate(-80.938 -49.96)" fill="#fff"/>
</svg>
