<svg xmlns="http://www.w3.org/2000/svg" width="18.497" height="18.519" viewBox="0 0 18.497 18.519">
  <path id="home" d="M18.556,9.611a1.93,1.93,0,0,1-.5.844,1.68,1.68,0,0,1-1.147.461h-.3v.215q0,2.66,0,5.32a1.978,1.978,0,0,1-1.546,1.972,2.236,2.236,0,0,1-.5.053c-.941.005-1.882,0-2.823,0a.559.559,0,0,1-.626-.624c0-1.388-.015-2.775.007-4.162a.965.965,0,0,0-1.032-1.035c-.5.017-1,.018-1.5,0A.968.968,0,0,0,7.54,13.7c.023,1.369.007,2.738.007,4.107,0,.47-.2.669-.673.669H4.123A1.992,1.992,0,0,1,2.05,16.4q0-2.624,0-5.248v-.221a5.721,5.721,0,0,1-.6-.054,1.615,1.615,0,0,1-1.3-1.13A1.643,1.643,0,0,1,.5,8.08c.047-.055.1-.106.15-.157q3.7-3.7,7.4-7.392A1.831,1.831,0,0,1,8.724.07,1.67,1.67,0,0,1,10.49.409c.314.3.618.611.924.918q3.211,3.211,6.426,6.423a2.489,2.489,0,0,1,.715,1.065Zm-6.364,7.781h.222c.688,0,1.376-.02,2.063.006a.98.98,0,0,0,1.05-1.054c-.021-1.954-.008-3.908-.008-5.863,0-.443.209-.649.656-.65.247,0,.495.007.742,0a.6.6,0,0,0,.545-.824,1.171,1.171,0,0,0-.267-.357Q13.538,4.984,9.877,1.326a.657.657,0,0,0-1.1,0L2.229,7.873c-.3.3-.61.6-.907.91a.579.579,0,0,0-.126.669.586.586,0,0,0,.567.377c.229,0,.459,0,.688,0,.483,0,.682.2.683.679v5.9a.911.911,0,0,0,.979.984H6.267c.058,0,.117-.005.193-.009v-.224c0-1.224-.01-2.449.008-3.673A1.924,1.924,0,0,1,8.229,11.6c.738-.049,1.482-.008,2.223-.005a.758.758,0,0,1,.16.025A1.98,1.98,0,0,1,12.19,13.6c.006,1.182,0,2.364,0,3.546Z" transform="translate(-0.059 0.04)" fill="#fff"/>
</svg>
