<svg xmlns="http://www.w3.org/2000/svg" width="19" height="19" viewBox="0 0 19 19">
  <path id="noun-number-2453943" d="M125.316,53.672h2.969l.405-1.621a.5.5,0,0,1,.97.242l-.345,1.379h.86a.5.5,0,0,1,0,1h-1.11l-.75,3h1.86a.5.5,0,0,1,0,1h-2.11l-.405,1.621a.5.5,0,1,1-.97-.243l.345-1.379h-2.969l-.405,1.621a.5.5,0,1,1-.97-.243l.345-1.379h-.86a.5.5,0,0,1,0-1h1.11l.75-3h-1.86a.5.5,0,1,1,0-1h2.11l.405-1.621a.5.5,0,0,1,.97.242Zm-.25,1-.75,3h2.969l.75-3Zm9.61,1.5a8.5,8.5,0,1,0-8.5,8.5A8.5,8.5,0,0,0,134.676,56.172Zm1,0a9.5,9.5,0,1,1-9.5-9.5A9.5,9.5,0,0,1,135.676,56.172Z" transform="translate(-116.676 -46.672)" fill="#fff"/>
</svg>
