<svg id="admin" xmlns="http://www.w3.org/2000/svg" width="17.826" height="15.389" viewBox="0 0 17.826 15.389">
  <path id="Path_4880" data-name="Path 4880" d="M11.545,7.426A2.963,2.963,0,1,0,8.582,4.463,2.967,2.967,0,0,0,11.545,7.426Z" transform="translate(-3.905 -0.683)" fill="none"/>
  <path id="Path_4881" data-name="Path 4881" d="M23.14,16.6a2.046,2.046,0,1,0,2.023,2.044A1.989,1.989,0,0,0,23.14,16.6Z" transform="translate(-9.589 -7.554)" fill="none"/>
  <path id="Path_4882" data-name="Path 4882" d="M10.863,7.561a3.781,3.781,0,1,0-3.781-3.78A3.785,3.785,0,0,0,10.863,7.561Zm0-6.744A2.963,2.963,0,1,1,7.9,3.781,2.967,2.967,0,0,1,10.863.817Z" transform="translate(-3.223)" fill="#fff"/>
  <path id="Path_4883" data-name="Path 4883" d="M9.5,14.268l-2.1.013C.368,14.281,0,21.774,0,21.85l.816.031C.827,21.6,1.145,15.1,7.4,15.1c1.351,0,2.1-.025,2.1-.025Z" transform="translate(0 -6.493)" fill="#fff"/>
  <path id="Path_4884" data-name="Path 4884" d="M24.953,16.372a1.052,1.052,0,0,1-1.12-.975,1.338,1.338,0,0,1,.443-.98c.18-.208.229-.374.005-.6a.367.367,0,0,0-.6,0,2.4,2.4,0,0,1-.375.281.993.993,0,0,1-1.52-.589c-.051-.18-.053-.374-.087-.56-.058-.325-.213-.417-.54-.361-.355.06-.288.349-.313.575a1.11,1.11,0,0,1-.611,1.005,1.03,1.03,0,0,1-1.152-.194c-.084-.072-.184-.13-.264-.205-.21-.195-.371-.108-.542.063s-.213.325-.039.519a3.553,3.553,0,0,1,.324.426.989.989,0,0,1-.6,1.533,3.507,3.507,0,0,1-.528.079.383.383,0,0,0-.392.435.365.365,0,0,0,.38.408c.111.008.223.013.333.028a1.017,1.017,0,0,1,.891,1.428,2.336,2.336,0,0,1-.378.55.359.359,0,0,0,.025.573.349.349,0,0,0,.571.014c.056-.054.123-.1.181-.148a1.051,1.051,0,0,1,1.8.8c.015.28.065.528.374.627h.134c.3-.1.359-.345.373-.624a1.074,1.074,0,0,1,.615-1.03,1.059,1.059,0,0,1,1.177.216c.059.051.125.093.183.146a.351.351,0,0,0,.569,0,.367.367,0,0,0,.022-.595,1.37,1.37,0,0,1-.458-.971,1.049,1.049,0,0,1,1.091-1c.286-.021.547-.057.656-.375v-.135C25.477,16.441,25.231,16.391,24.953,16.372ZM21.274,18.86a2.046,2.046,0,1,1,2.056-2.048A1.993,1.993,0,0,1,21.274,18.86Z" transform="translate(-7.754 -5.721)" fill="#fff"/>
</svg>
