<svg xmlns="http://www.w3.org/2000/svg" xmlns:xlink="http://www.w3.org/1999/xlink" width="60" height="42.329" viewBox="0 0 60 42.329">
  <defs>
    <linearGradient id="linear-gradient" y1="0.5" x2="0.999" y2="0.5" gradientUnits="objectBoundingBox">
      <stop offset="0.05" stop-color="#af2a47"/>
      <stop offset="0.18" stop-color="#bc254b"/>
      <stop offset="0.5" stop-color="#d71c54"/>
      <stop offset="0.78" stop-color="#e71659"/>
      <stop offset="1" stop-color="#ed145b"/>
    </linearGradient>
    <linearGradient id="linear-gradient-2" y1="0.5" x2="0.999" y2="0.5" gradientUnits="objectBoundingBox">
      <stop offset="0" stop-color="#221e67"/>
      <stop offset="0.09" stop-color="#3f1e6b"/>
      <stop offset="0.2" stop-color="#5e1f70"/>
      <stop offset="1" stop-color="#b63f81"/>
    </linearGradient>
    <linearGradient id="linear-gradient-3" x1="0.5" x2="0.5" y2="1" gradientUnits="objectBoundingBox">
      <stop offset="0.1" stop-color="#f04e23"/>
      <stop offset="0.14" stop-color="#f05223"/>
      <stop offset="0.72" stop-color="#f5821f"/>
      <stop offset="1" stop-color="#f7941e"/>
    </linearGradient>
  </defs>
  <g id="logo-celcom-business-reverse" transform="translate(-0.361 -0.441)">
    <path id="Path_5895" data-name="Path 5895" d="M52,47.655a4.816,4.816,0,0,1-1.513-.247,4.718,4.718,0,0,1-1.362-.707l.611-.914a4.7,4.7,0,0,0,1.144.581,3.615,3.615,0,0,0,1.158.2,1.268,1.268,0,0,0,.8-.22.706.706,0,0,0,.279-.582.531.531,0,0,0-.274-.471,3.323,3.323,0,0,0-.686-.314q-.443-.152-.891-.29a4.678,4.678,0,0,1-.89-.377,2.178,2.178,0,0,1-.686-.593,1.465,1.465,0,0,1-.274-.914,1.7,1.7,0,0,1,.184-.8,1.844,1.844,0,0,1,.509-.605,2.268,2.268,0,0,1,.763-.383,3.38,3.38,0,0,1,.96-.13,4.7,4.7,0,0,1,1.311.192,4.481,4.481,0,0,1,1.2.538l-.394.667a.329.329,0,0,1-.218.176.339.339,0,0,1-.279-.052,4.3,4.3,0,0,0-.832-.328,3.055,3.055,0,0,0-.81-.114,1.157,1.157,0,0,0-.765.218.667.667,0,0,0-.254.525.523.523,0,0,0,.274.456,3.554,3.554,0,0,0,.686.322q.416.147.9.3a4.706,4.706,0,0,1,.9.378,2.172,2.172,0,0,1,.686.588,1.447,1.447,0,0,1,.274.9,1.877,1.877,0,0,1-.191.859,1.813,1.813,0,0,1-.521.631,2.318,2.318,0,0,1-.795.383,3.686,3.686,0,0,1-1,.13m-6.5,0a4.816,4.816,0,0,1-1.513-.247,4.718,4.718,0,0,1-1.361-.707l.61-.914a4.707,4.707,0,0,0,1.145.581,3.611,3.611,0,0,0,1.158.2,1.268,1.268,0,0,0,.8-.22.705.705,0,0,0,.279-.582.531.531,0,0,0-.273-.471,3.322,3.322,0,0,0-.686-.314q-.443-.152-.891-.29a4.678,4.678,0,0,1-.89-.377,2.178,2.178,0,0,1-.686-.593,1.465,1.465,0,0,1-.274-.914,1.687,1.687,0,0,1,.185-.8,1.845,1.845,0,0,1,.509-.606,2.25,2.25,0,0,1,.763-.383,3.353,3.353,0,0,1,.961-.13,4.7,4.7,0,0,1,1.31.191,4.483,4.483,0,0,1,1.2.539l-.394.667a.329.329,0,0,1-.218.176.339.339,0,0,1-.279-.052,4.3,4.3,0,0,0-.832-.328,3.055,3.055,0,0,0-.807-.119,1.157,1.157,0,0,0-.767.219.667.667,0,0,0-.249.525.524.524,0,0,0,.273.456,3.579,3.579,0,0,0,.686.322q.416.147.9.3a4.683,4.683,0,0,1,.9.378,2.172,2.172,0,0,1,.686.588,1.447,1.447,0,0,1,.274.9,1.877,1.877,0,0,1-.193.856,1.813,1.813,0,0,1-.518.629,2.317,2.317,0,0,1-.8.383,3.686,3.686,0,0,1-1,.13m-5.544-3.818A2.889,2.889,0,0,0,39.8,43.1a1.83,1.83,0,0,0-.35-.588,1.614,1.614,0,0,0-.535-.389,1.727,1.727,0,0,0-.718-.14,1.655,1.655,0,0,0-1.216.519,2.075,2.075,0,0,0-.388.593,2.359,2.359,0,0,0-.191.745h3.563Zm-3.55.918a1.8,1.8,0,0,0,.687,1.276,2.026,2.026,0,0,0,.636.339,2.352,2.352,0,0,0,.738.119,4.783,4.783,0,0,0,2.3-.62v.865a.594.594,0,0,1-.057.313.716.716,0,0,1-.249.18,3.606,3.606,0,0,1-.993.339,6.319,6.319,0,0,1-1.144.1,3.765,3.765,0,0,1-1.425-.254,3.027,3.027,0,0,1-1.73-1.778,3.8,3.8,0,0,1-.228-1.341,3.717,3.717,0,0,1,.235-1.334,3.293,3.293,0,0,1,.665-1.077,3.053,3.053,0,0,1,1.019-.717,3.573,3.573,0,0,1,2.8.054,2.906,2.906,0,0,1,1.031.846,3.353,3.353,0,0,1,.572,1.229,4.537,4.537,0,0,1,.108,1.464ZM30.52,42.14a1.607,1.607,0,0,0-.661.135,1.528,1.528,0,0,0-.522.378,1.809,1.809,0,0,0-.343.576,2.026,2.026,0,0,0-.128.729v3.549H27.43V41.534a.437.437,0,0,1,.083-.278.513.513,0,0,1,.3-.155l1.055-.247v1.224a2.759,2.759,0,0,1,.852-.853,2.412,2.412,0,0,1,1.323-.334,2.8,2.8,0,0,1,1.03.179,2.119,2.119,0,0,1,.778.508,2.231,2.231,0,0,1,.485.8,3.119,3.119,0,0,1,.166,1.039V47.5H32.035V43.834a1.81,1.81,0,0,0-.4-1.238,1.4,1.4,0,0,0-1.114-.457m-4.9,5.368h-1.45V41.522a.421.421,0,0,1,.382-.432l1.069-.235v6.652Zm-1.565-8.173a.774.774,0,0,1,.249-.575.846.846,0,0,1,1.183,0,.791.791,0,0,1,0,1.15.847.847,0,0,1-1.183,0,.774.774,0,0,1-.249-.576Zm-3.933,8.321a4.812,4.812,0,0,1-1.514-.247A4.709,4.709,0,0,1,17.25,46.7l.61-.914a4.707,4.707,0,0,0,1.145.581,3.611,3.611,0,0,0,1.158.2,1.268,1.268,0,0,0,.8-.22.7.7,0,0,0,.279-.582.532.532,0,0,0-.274-.471,3.3,3.3,0,0,0-.686-.314q-.443-.152-.891-.29a4.714,4.714,0,0,1-.891-.377,2.173,2.173,0,0,1-.686-.593,1.457,1.457,0,0,1-.274-.914,1.72,1.72,0,0,1,.694-1.4A2.246,2.246,0,0,1,19,41.017a3.348,3.348,0,0,1,.96-.13,4.706,4.706,0,0,1,1.311.191,4.5,4.5,0,0,1,1.2.539l-.394.667a.329.329,0,0,1-.218.176.339.339,0,0,1-.279-.052,4.308,4.308,0,0,0-.832-.327,3.05,3.05,0,0,0-.807-.119,1.158,1.158,0,0,0-.768.218.667.667,0,0,0-.254.525.523.523,0,0,0,.275.456,3.554,3.554,0,0,0,.686.322q.416.147.9.3a4.694,4.694,0,0,1,.9.378,2.172,2.172,0,0,1,.686.588,1.447,1.447,0,0,1,.274.9,1.877,1.877,0,0,1-.191.857,1.789,1.789,0,0,1-.522.629,2.317,2.317,0,0,1-.794.383,3.686,3.686,0,0,1-1,.13m-7.874,0a2.807,2.807,0,0,1-1.03-.179,2.07,2.07,0,0,1-.77-.514,2.25,2.25,0,0,1-.477-.8,3.1,3.1,0,0,1-.166-1.039V41.05h1.437v3.678a1.745,1.745,0,0,0,.407,1.225,1.457,1.457,0,0,0,1.133.444,1.7,1.7,0,0,0,.649-.123,1.433,1.433,0,0,0,.521-.358,1.769,1.769,0,0,0,.343-.55,1.882,1.882,0,0,0,.127-.71V41.051h1.438v6.455H14.427v-1.04a3.029,3.029,0,0,1-.853.841,2.35,2.35,0,0,1-1.323.345m-7.329-1.21a2.064,2.064,0,0,0,.783-.148,1.8,1.8,0,0,0,.63-.432,2.055,2.055,0,0,0,.416-.686,2.581,2.581,0,0,0,.152-.922,2.472,2.472,0,0,0-.148-.88,2.054,2.054,0,0,0-.416-.687,1.861,1.861,0,0,0-.63-.438,1.979,1.979,0,0,0-.783-.155,1.864,1.864,0,0,0-1.386.6,2.145,2.145,0,0,0-.416.687,2.439,2.439,0,0,0-.153.878,2.509,2.509,0,0,0,.153.9,2.11,2.11,0,0,0,.416.692,1.85,1.85,0,0,0,1.386.6m.344,1.211A2.6,2.6,0,0,1,3.845,47.3a3.166,3.166,0,0,1-.915-.878v1.088H1.487V39a.464.464,0,0,1,.09-.29.486.486,0,0,1,.269-.169l1.081-.271v3.921a3.462,3.462,0,0,1,.933-.931,2.478,2.478,0,0,1,1.407-.37,3,3,0,0,1,2.143.89,3.317,3.317,0,0,1,.687,1.06,3.651,3.651,0,0,1,.261,1.415A3.726,3.726,0,0,1,8.1,45.687a3.281,3.281,0,0,1-.686,1.063,3.034,3.034,0,0,1-2.144.907" transform="translate(-0.173 -4.888)" fill="#666" fill-rule="evenodd"/>
    <path id="Path_5896" data-name="Path 5896" d="M54.665,16.889,60.929,20.5V13.27Z" transform="translate(-6.845 -1.678)" fill="#ee3e80"/>
    <path id="Path_5897" data-name="Path 5897" d="M68.343,16.889,62.069,13.27V20.5Z" transform="translate(-7.982 -1.678)" fill="url(#linear-gradient)"/>
    <path id="Path_5898" data-name="Path 5898" d="M68.343,16.232V8.995l-6.274,3.619Z" transform="translate(-7.982 -1.118)" fill="url(#linear-gradient-2)"/>
    <path id="Path_5899" data-name="Path 5899" d="M62.069,11.956l6.274-3.615-6.274-3.63Z" transform="translate(-7.982 -0.656)" fill="url(#linear-gradient-3)"/>
    <path id="Path_5900" data-name="Path 5900" d="M60.933,4.712,54.669,8.338l6.264,3.619Z" transform="translate(-6.846 -0.656)" fill="#f7941e"/>
    <path id="Path_5901" data-name="Path 5901" d="M54.665.441V7.682l6.264-3.626Z" transform="translate(-6.845 0)" fill="#fdb933"/>
    <path id="Path_5902" data-name="Path 5902" d="M50.873,24.508a3.408,3.408,0,0,0-2.7,1.2,3.47,3.47,0,0,0-2.736-1.2A2.822,2.822,0,0,0,43.2,25.524v-1.04a3.368,3.368,0,0,0-1.858.659,1,1,0,0,0-.309.772V32.97h2.177V27.637c0-.706.726-1.256,1.654-1.256a2.029,2.029,0,0,1,1.063.265,1.191,1.191,0,0,1,.57,1.1V32.97H48.63V27.637c0-.706.725-1.256,1.651-1.256a2.029,2.029,0,0,1,1.066.265,1.191,1.191,0,0,1,.566,1.1V32.97H54.09V26.994c0-1.4-1.422-2.486-3.218-2.486Zm-15.856,0a4.547,4.547,0,0,0-3.252,1.234,4.293,4.293,0,0,0-1.352,3.132A4.429,4.429,0,0,0,31.8,32.009a4.273,4.273,0,0,0,3.184,1.155,4.4,4.4,0,0,0,3.237-1.181A4.555,4.555,0,0,0,39.663,28.8,4.381,4.381,0,0,0,35.016,24.508Zm0,6.8a2.448,2.448,0,0,1-2.391-2.5,2.342,2.342,0,0,1,.666-1.725,2.258,2.258,0,0,1,1.7-.677,2.474,2.474,0,0,1,1.742.739,2.333,2.333,0,0,1,.665,1.73,2.363,2.363,0,0,1-.665,1.75,2.279,2.279,0,0,1-1.714.69Zm-8.493-4.772a2.906,2.906,0,0,1,2.035.791l1.393-1.447A4.7,4.7,0,0,0,25,24.794a4.5,4.5,0,0,0-2.978,3.993,4.272,4.272,0,0,0,1.256,3.184,4.118,4.118,0,0,0,3.162,1.19,5.838,5.838,0,0,0,2.828-.618.6.6,0,0,0,.275-.593V30.8a5.692,5.692,0,0,1-2.361.567,2.456,2.456,0,0,1-2.764-2.582A2.178,2.178,0,0,1,25,27.2a2.1,2.1,0,0,1,1.521-.672Zm-8-3.354v9.794h2.2V21.5a4.382,4.382,0,0,0-1.876.879,1.135,1.135,0,0,0-.323.8Zm-5.45,1.33a3.984,3.984,0,0,0-3.056,1.216,4.134,4.134,0,0,0-1.148,3.129,4.237,4.237,0,0,0,1.248,3.125A4.085,4.085,0,0,0,13.22,33.16a5.9,5.9,0,0,0,2.859-.631.586.586,0,0,0,.272-.593V30.818a5.76,5.76,0,0,1-2.377.565,2.485,2.485,0,0,1-2.717-1.82h5.981a3.566,3.566,0,0,0,.037-.586c-.018-2.5-1.376-4.469-4.205-4.469Zm-1.864,3.679A1.955,1.955,0,0,1,13.1,26.275a1.813,1.813,0,0,1,1.348.542,1.88,1.88,0,0,1,.538,1.37ZM4.859,26.532a2.9,2.9,0,0,1,2.035.791l1.389-1.447A4.7,4.7,0,0,0,3.338,24.8a4.492,4.492,0,0,0-2.974,3.99A4.267,4.267,0,0,0,1.618,31.97a4.113,4.113,0,0,0,3.161,1.19,5.856,5.856,0,0,0,2.834-.618.6.6,0,0,0,.272-.593V30.8a5.665,5.665,0,0,1-2.361.567,2.457,2.457,0,0,1-2.764-2.582,2.18,2.18,0,0,1,.58-1.581,2.1,2.1,0,0,1,1.52-.673Z" transform="translate(0 -2.682)" fill="#009bdf"/>
  </g>
</svg>
