<svg xmlns="http://www.w3.org/2000/svg" width="44" height="44" viewBox="0 0 44 44">
  <g id="noun-manager-1427566" transform="translate(-70)">
    <path id="Path_5243" data-name="Path 5243" d="M92,44a22,22,0,1,1,22-22A22.025,22.025,0,0,1,92,44ZM92,.917A21.083,21.083,0,1,0,113.083,22,21.107,21.107,0,0,0,92,.917Z" transform="translate(0)" fill="#1fa8e3"/>
    <path id="Path_5244" data-name="Path 5244" d="M287.167,200.415a7.214,7.214,0,0,1-7.207-7.207v-3.67h1.2v3.67a6.005,6.005,0,1,0,12.011,0v-3.67h1.2v3.67A7.214,7.214,0,0,1,287.167,200.415Z" transform="translate(-195.169 -175.72)" fill="#1fa8e3"/>
    <path id="Path_5245" data-name="Path 5245" d="M307.28,279.85h1.2v2.987h-1.2Z" transform="translate(-218.76 -258.235)" fill="#1fa8e3"/>
    <path id="Path_5246" data-name="Path 5246" d="M380.99,279.85h1.2v2.987h-1.2Z" transform="translate(-286.716 -258.235)" fill="#1fa8e3"/>
    <path id="Path_5247" data-name="Path 5247" d="M283.487,104.751a.6.6,0,0,1-.469-.225l-2.056-2.554a.6.6,0,0,1-.132-.376v-.918h-7.906v.918a.6.6,0,0,1-.132.376l-2.05,2.554a.6.6,0,0,1-1.048-.217l-1.132-4.138a3.057,3.057,0,0,1,2.418-3.677,3.563,3.563,0,0,1,4.126-3.058l7.156,1.193a3.638,3.638,0,0,1,2.981,4.238l-1.169,5.411a.6.6,0,0,1-.449.458.686.686,0,0,1-.137.015Zm-8.97-10.163a2.376,2.376,0,0,0-2.373,2.375.675.675,0,0,1-.6.681,1.855,1.855,0,0,0-1.815,2.242l.814,2.97,1.181-1.471v-1.307a.6.6,0,0,1,.6-.6h9.107a.6.6,0,0,1,.6.6v1.306l1.134,1.409.9-4.162a2.436,2.436,0,0,0-2-2.818l-7.156-1.193a2.429,2.429,0,0,0-.391-.032Z" transform="translate(-184.886 -86.609)" fill="#1fa8e3"/>
    <path id="Path_5248" data-name="Path 5248" d="M210.6,338.827a.6.6,0,0,1-.6-.6v-6.634a4.986,4.986,0,0,1,2.409-4.254l5.152-3.092a.6.6,0,1,1,.619,1.03l-5.152,3.092a3.779,3.779,0,0,0-1.827,3.224v6.634A.6.6,0,0,1,210.6,338.827Z" transform="translate(-129.586 -301.037)" fill="#1fa8e3"/>
    <path id="Path_5249" data-name="Path 5249" d="M415.583,338.827a.6.6,0,0,1-.6-.6v-6.634a3.779,3.779,0,0,0-1.827-3.225L408,325.276a.6.6,0,1,1,.619-1.03l5.153,3.092a4.985,4.985,0,0,1,2.409,4.254v6.634A.6.6,0,0,1,415.583,338.827Z" transform="translate(-312.595 -301.037)" fill="#1fa8e3"/>
    <path id="Path_5250" data-name="Path 5250" d="M251.075,397.324a.6.6,0,0,1-.6-.6V393.91a3.757,3.757,0,0,0-.984-2.537l-.909-1a.6.6,0,0,1,.888-.811l.909,1a4.962,4.962,0,0,1,1.3,3.348v2.813a.6.6,0,0,1-.6.6Z" transform="translate(-164.666 -360.296)" fill="#1fa8e3"/>
    <path id="Path_5251" data-name="Path 5251" d="M420.6,397.331a.6.6,0,0,1-.6-.6v-2.813a4.95,4.95,0,0,1,1.3-3.346l.909-1a.6.6,0,1,1,.888.811l-.909,1a3.75,3.75,0,0,0-.985,2.537v2.813a.6.6,0,0,1-.6.6Z" transform="translate(-323.008 -360.303)" fill="#1fa8e3"/>
    <path id="Path_5252" data-name="Path 5252" d="M284.122,309.991h-.034a.6.6,0,0,1-.436-.225l-2.908-3.635a.6.6,0,0,1,.023-.777l1.962-2.181a.6.6,0,0,1,.7-.14l4.58,2.181a.6.6,0,0,1,.167.967l-3.635,3.635a.592.592,0,0,1-.423.177ZM282,305.778l2.17,2.713,2.56-2.56-3.408-1.623Z" transform="translate(-194.862 -280.192)" fill="#1fa8e3"/>
    <path id="Path_5253" data-name="Path 5253" d="M348.393,310a.6.6,0,0,1-.425-.175l-3.635-3.635a.6.6,0,0,1,.167-.967l4.58-2.181a.6.6,0,0,1,.7.14l1.962,2.181a.6.6,0,0,1,.023.777l-2.908,3.635a.6.6,0,0,1-.436.225.282.282,0,0,0-.032,0Zm-2.609-4.06,2.56,2.56,2.17-2.713-1.322-1.469Z" transform="translate(-253.654 -280.204)" fill="#1fa8e3"/>
    <path id="Path_5254" data-name="Path 5254" d="M333.561,344.842h-2.907a.6.6,0,0,1-.6-.6v-1.817a.6.6,0,0,1,1.2,0v1.216h1.707v-1.216a.6.6,0,0,1,1.2,0v1.817a.6.6,0,0,1-.6.6Z" transform="translate(-240.108 -315.427)" fill="#1fa8e3"/>
    <path id="Path_5255" data-name="Path 5255" d="M330.868,370.5a.6.6,0,0,1-.6-.536l-1.016-9.294h-.377l-1.016,9.294a.6.6,0,0,1-1.194-.13l1.075-9.83a.6.6,0,0,1,.6-.536h1.455a.6.6,0,0,1,.6.536l1.075,9.83a.6.6,0,0,1-.6.666Z" transform="translate(-237.067 -333.302)" fill="#1fa8e3"/>
  </g>
</svg>
