<svg id="logo" xmlns="http://www.w3.org/2000/svg" xmlns:xlink="http://www.w3.org/1999/xlink" width="120" height="60.431" viewBox="0 0 120 60.431">
  <defs>
    <linearGradient id="linear-gradient" y1="0.5" x2="0.999" y2="0.5" gradientUnits="objectBoundingBox">
      <stop offset="0" stop-color="#221e67"/>
      <stop offset="0.09" stop-color="#3f1e6b"/>
      <stop offset="0.2" stop-color="#5e1f70"/>
      <stop offset="1" stop-color="#b63f81"/>
    </linearGradient>
    <linearGradient id="linear-gradient-2" x1="0.5" x2="0.5" y2="1" gradientUnits="objectBoundingBox">
      <stop offset="0.1" stop-color="#f04e23"/>
      <stop offset="0.14" stop-color="#f05223"/>
      <stop offset="0.72" stop-color="#f5821f"/>
      <stop offset="1" stop-color="#f7941e"/>
    </linearGradient>
    <linearGradient id="linear-gradient-3" y1="0.5" x2="0.999" y2="0.5" gradientUnits="objectBoundingBox">
      <stop offset="0.05" stop-color="#af2a47"/>
      <stop offset="0.18" stop-color="#bc254b"/>
      <stop offset="0.5" stop-color="#d71c54"/>
      <stop offset="0.78" stop-color="#e71659"/>
      <stop offset="1" stop-color="#ed145b"/>
    </linearGradient>
  </defs>
  <path id="Shape" d="M54.3,20.73l13.684,7.893V12.829Z" transform="translate(38.318 8.952)" fill="#ee3e80"/>
  <path id="Shape-2" data-name="Shape" d="M54.3,0V15.809L67.984,7.893Z" transform="translate(38.318)" fill="#fdb933"/>
  <path id="Shape-3" data-name="Shape" d="M67.984,4.271h0L54.3,12.187l13.684,7.9Z" transform="translate(38.318 3.622)" fill="#f7941e"/>
  <path id="Shape-4" data-name="Shape" d="M75.4,24.355V8.554l-13.7,7.9Z" transform="translate(44.597 5.969)" fill="url(#linear-gradient)"/>
  <path id="Shape-5" data-name="Shape" d="M61.7,20.087h0l13.7-7.9L61.7,4.271Z" transform="translate(44.597 3.622)" fill="url(#linear-gradient-2)"/>
  <path id="Shape-6" data-name="Shape" d="M75.4,20.73h0l-13.7-7.9V28.623Z" transform="translate(44.597 8.952)" fill="url(#linear-gradient-3)"/>
  <path id="Shape-7" data-name="Shape" d="M18.691,24.612c-5.529,0-8.925,4.058-8.925,9.487.069,6,4.258,9.4,9.24,9.4a12.244,12.244,0,0,0,6.068-1.378,1.294,1.294,0,0,0,.578-1.294V38.388a11.943,11.943,0,0,1-5.044,1.232c-2.749,0-5.221-1.194-5.768-3.973h12.7a7.939,7.939,0,0,0,.077-1.278C27.578,28.917,24.7,24.612,18.691,24.612Zm-3.95,8.031a4.207,4.207,0,0,1,4.012-4.174c2.41,0,3.781,1.679,3.989,4.174h-8Z" transform="translate(8.283 16.922)" fill="#fff"/>
  <path id="Shape-8" data-name="Shape" d="M9.541,29.034a6.06,6.06,0,0,1,4.32,1.725L16.81,27.6A9.779,9.779,0,0,0,0,33.955C0,40.115,4.328,43.5,9.371,43.5a12.143,12.143,0,0,0,6.014-1.348,1.309,1.309,0,0,0,.578-1.294v-2.51a11.766,11.766,0,0,1-5.013,1.24c-3.25,0-5.868-1.686-5.868-5.637A4.622,4.622,0,0,1,9.541,29.034Z" transform="translate(0 16.92)" fill="#fff"/>
  <path id="Shape-9" data-name="Shape" d="M44.284,24.614a9.5,9.5,0,0,0-9.772,9.525,9.351,9.351,0,0,0,9.71,9.364,9.619,9.619,0,0,0,9.926-9.518C54.148,28.6,49.859,24.614,44.284,24.614Zm0,14.839a5.282,5.282,0,0,1-5.075-5.467,4.954,4.954,0,0,1,5.013-5.244,5.175,5.175,0,0,1,5.113,5.39,5,5,0,0,1-5.051,5.329Z" transform="translate(24.706 16.92)" fill="#fff"/>
  <path id="Shape-10" data-name="Shape" d="M67.594,24.637a7.146,7.146,0,0,0-5.737,2.618,7.277,7.277,0,0,0-5.806-2.618,5.922,5.922,0,0,0-4.736,2.21V24.583a7.024,7.024,0,0,0-3.943,1.44,2.21,2.21,0,0,0-.655,1.686v15.4h4.62V31.475c0-1.54,1.54-2.741,3.511-2.741a4.212,4.212,0,0,1,2.256.578,2.626,2.626,0,0,1,1.209,2.4v11.4h4.52V31.475c0-1.54,1.54-2.741,3.5-2.741a4.212,4.212,0,0,1,2.264.578,2.618,2.618,0,0,1,1.2,2.4v11.4h4.62V30.066C74.416,27.017,71.405,24.637,67.594,24.637Z" transform="translate(31.885 16.897)" fill="#fff"/>
  <path id="Shape-11" data-name="Shape" d="M34.428,29.037a6.076,6.076,0,0,1,4.32,1.725L41.7,27.6a9.787,9.787,0,0,0-16.825,6.353c0,6.16,4.335,9.548,9.379,9.548a12.1,12.1,0,0,0,6.006-1.348,1.317,1.317,0,0,0,.585-1.294v-2.51a11.812,11.812,0,0,1-5.013,1.24c-3.257,0-5.868-1.686-5.868-5.637A4.617,4.617,0,0,1,34.428,29.037Z" transform="translate(17.894 16.918)" fill="#fff"/>
  <path id="Shape-12" data-name="Shape" d="M20.854,24.727V46.111h4.666V21.054a9.184,9.184,0,0,0-3.981,1.917,2.518,2.518,0,0,0-.685,1.756Z" transform="translate(15.264 13.904)" fill="#fff"/>
</svg>
