<svg xmlns="http://www.w3.org/2000/svg" width="44" height="44" viewBox="0 0 44 44">
  <g id="noun-partnership-1457061" transform="translate(8.059 11.504)">
    <path id="Path_5322" data-name="Path 5322" d="M182.146,189.485a1.511,1.511,0,0,1-1.072-.443L178.13,186.1a1.516,1.516,0,0,1,0-2.144l7.279-7.278a1.519,1.519,0,0,1,2.145,0l2.944,2.945a1.517,1.517,0,0,1,0,2.144l-7.281,7.278a1.511,1.511,0,0,1-1.072.444Zm4.334-12.642a.9.9,0,0,0-.639.265l-7.279,7.278a.9.9,0,0,0,0,1.278l2.944,2.945a.906.906,0,0,0,1.279,0l7.279-7.278a.9.9,0,0,0,0-1.278l-2.944-2.944a.9.9,0,0,0-.64-.264Z" transform="translate(-177.6 -175.557)" fill="#fff"/>
    <path id="Path_5323" data-name="Path 5323" d="M290.77,220.69a.306.306,0,0,1-.069-.008,4.53,4.53,0,0,1-2.18-1.218l-.824-.823a.306.306,0,1,1,.433-.433l.823.824a3.931,3.931,0,0,0,1.885,1.055.306.306,0,0,1-.068.6Z" transform="translate(-278.408 -212.981)" fill="#fff"/>
    <path id="Path_5324" data-name="Path 5324" d="M241.226,296.616a.307.307,0,0,1-.282-.186,4.719,4.719,0,0,1-.376-1.642l-.024-.662a3.969,3.969,0,0,0-1.163-2.655.306.306,0,0,1,.433-.434,4.588,4.588,0,0,1,1.342,3.065l.024.661a4.113,4.113,0,0,0,.327,1.427.306.306,0,0,1-.162.4.322.322,0,0,1-.12.024Z" transform="translate(-233.696 -280.732)" fill="#fff"/>
    <path id="Path_5325" data-name="Path 5325" d="M447.656,280.262a.312.312,0,0,1-.073-.009.306.306,0,0,1-.225-.37,4.04,4.04,0,0,0,.112-.781l.024-.657a4.583,4.583,0,0,1,1.342-3.066l1.4-1.4a.306.306,0,0,1,.433.433l-1.4,1.4a3.973,3.973,0,0,0-1.163,2.657l-.024.658a4.7,4.7,0,0,1-.129.9.307.307,0,0,1-.3.233Z" transform="translate(-425.837 -265.09)" fill="#fff"/>
    <path id="Path_5326" data-name="Path 5326" d="M345.914,410.55a1.554,1.554,0,0,1-1.108-.459.306.306,0,1,1,.433-.433.979.979,0,0,0,1.349,0l.867-.867a.956.956,0,0,0,0-1.35.306.306,0,1,1,.433-.433,1.569,1.569,0,0,1,0,2.216l-.867.867A1.554,1.554,0,0,1,345.914,410.55Z" transform="translate(-331.149 -387.418)" fill="#fff"/>
    <path id="Path_5327" data-name="Path 5327" d="M372.62,390.766a1.565,1.565,0,0,1-1.11-.459.306.306,0,0,1,.433-.434.958.958,0,0,0,1.353,0l.863-.863a.958.958,0,0,0,0-1.354.306.306,0,1,1,.433-.433,1.57,1.57,0,0,1,0,2.219l-.863.863a1.561,1.561,0,0,1-1.109.459Z" transform="translate(-355.8 -369.152)" fill="#fff"/>
    <path id="Path_5328" data-name="Path 5328" d="M399.33,370.986a1.565,1.565,0,0,1-1.11-.459.306.306,0,0,1,.433-.434.958.958,0,0,0,1.353,0l.863-.863a.958.958,0,0,0,0-1.353.306.306,0,1,1,.433-.433,1.571,1.571,0,0,1,0,2.219l-.864.863a1.563,1.563,0,0,1-1.109.458Z" transform="translate(-380.457 -350.891)" fill="#fff"/>
    <path id="Path_5329" data-name="Path 5329" d="M414.98,180.627a1.447,1.447,0,0,1-1.025-.423l-7.375-7.375a1.452,1.452,0,0,1,0-2.05l3.039-3.039a1.452,1.452,0,0,1,2.05,0l7.374,7.374a1.45,1.45,0,0,1,0,2.049L416,180.2a1.444,1.444,0,0,1-1.025.424Zm-4.335-12.7a.829.829,0,0,0-.592.245l-3.039,3.039a.838.838,0,0,0,0,1.184l7.374,7.374a.837.837,0,0,0,1.183,0l3.039-3.039a.837.837,0,0,0,0-1.184l-7.374-7.375A.836.836,0,0,0,410.645,167.929Z" transform="translate(-390.375 -167.253)" fill="#fff"/>
    <path id="Path_5330" data-name="Path 5330" d="M406.536,311.1a1.557,1.557,0,0,1-1.11-.46.306.306,0,1,1,.433-.433.98.98,0,0,0,1.353,0l.863-.863a.958.958,0,0,0,0-1.354l-5.158-5.158a.306.306,0,0,1,.433-.433l5.158,5.158a1.57,1.57,0,0,1,0,2.219l-.863.863a1.555,1.555,0,0,1-1.109.46Z" transform="translate(-385.343 -291.925)" fill="#fff"/>
    <path id="Path_5331" data-name="Path 5331" d="M269.609,221.315a3.514,3.514,0,0,1-2.5-1.038,1.16,1.16,0,0,1,0-1.638l4.225-4.225a4.635,4.635,0,0,1,3.3-1.366h4.74a4.021,4.021,0,0,0,2.863-1.186l.824-.824a.306.306,0,0,1,.433.433l-.824.824a4.631,4.631,0,0,1-3.3,1.366h-4.74a4.022,4.022,0,0,0-2.863,1.186l-4.225,4.224a.546.546,0,0,0,0,.773,2.928,2.928,0,0,0,4.141,0l.308-.308a6.224,6.224,0,0,1,4.2-1.825l.061,0a6.254,6.254,0,0,1,4.633,1.825.306.306,0,1,1-.433.433,5.641,5.641,0,0,0-4.179-1.645l-.061,0a5.611,5.611,0,0,0-3.785,1.646l-.308.308a3.517,3.517,0,0,1-2.5,1.038Z" transform="translate(-261.22 -207.433)" fill="#fff"/>
    <path id="Path_5332" data-name="Path 5332" d="M239.184,326.025a1.566,1.566,0,0,1-1.112-.46l-.862-.861a1.572,1.572,0,0,1,0-2.221l2.86-2.86a2.162,2.162,0,0,1,1.539-.637h0a2.178,2.178,0,0,1,1.541,3.719l-2.86,2.86a1.566,1.566,0,0,1-1.113.46Zm2.433-6.426h0a1.558,1.558,0,0,0-1.107.458l-2.86,2.86a.959.959,0,0,0,0,1.355l.862.861a.961.961,0,0,0,1.358,0l2.86-2.86a1.569,1.569,0,0,0,0-2.216,1.551,1.551,0,0,0-1.107-.458Z" transform="translate(-231.836 -306.968)" fill="#fff"/>
    <path id="Path_5333" data-name="Path 5333" d="M265.888,335.534a1.569,1.569,0,0,1-1.112-.459l-.862-.863a1.569,1.569,0,0,1,0-2.22l4.185-4.185a2.179,2.179,0,0,1,3.082,3.081L267,335.074a1.569,1.569,0,0,1-1.113.46Zm3.75-7.749a1.553,1.553,0,0,0-1.1.454l-4.185,4.185a.957.957,0,0,0,0,1.354l.862.863a.963.963,0,0,0,1.358,0l4.185-4.185a1.567,1.567,0,0,0-1.115-2.671Z" transform="translate(-256.729 -314.871)" fill="#fff"/>
    <path id="Path_5334" data-name="Path 5334" d="M292.614,365.133a1.566,1.566,0,0,1-1.112-.46l-.862-.861a1.572,1.572,0,0,1,0-2.221l2.918-2.918a2.179,2.179,0,1,1,3.082,3.081l-2.918,2.918a1.564,1.564,0,0,1-1.112.461Zm2.49-6.485a1.562,1.562,0,0,0-1.108.458l-2.918,2.918a.959.959,0,0,0,0,1.355l.862.861a.98.98,0,0,0,1.358,0l2.918-2.918a1.566,1.566,0,0,0-1.108-2.675Z" transform="translate(-281.3 -343.139)" fill="#fff"/>
    <path id="Path_5335" data-name="Path 5335" d="M319.318,391.086a1.569,1.569,0,0,1-1.112-.459l-.862-.863a1.568,1.568,0,0,1,0-2.219l2.124-2.124a2.179,2.179,0,1,1,3.082,3.081l-2.124,2.125a1.57,1.57,0,0,1-1.112.459Zm1.7-5.692a1.556,1.556,0,0,0-1.108.459l-2.124,2.124a.954.954,0,0,0-.283.68.943.943,0,0,0,.278.674l.862.863a.961.961,0,0,0,1.358,0l2.124-2.124h0a1.567,1.567,0,0,0-1.108-2.675Z" transform="translate(-305.883 -367.679)" fill="#fff"/>
    <path id="Path_5336" data-name="Path 5336" d="M214.389,273.278a.294.294,0,0,1-.219-.093.309.309,0,0,1,0-.429.311.311,0,0,1,.434,0,.307.307,0,0,1,.092.215.315.315,0,0,1-.306.307Z" transform="translate(-210.326 -262.997)" fill="#fff"/>
    <path id="Path_5337" data-name="Path 5337" d="M479.779,266.916a.3.3,0,0,1-.219-.093.3.3,0,0,1-.087-.214.3.3,0,0,1,.092-.219.31.31,0,0,1,.429,0,.3.3,0,0,1,.092.215.306.306,0,0,1-.092.215A.285.285,0,0,1,479.779,266.916Z" transform="translate(-454.797 -257.136)" fill="#fff"/>
    <path id="Path_5338" data-name="Path 5338" d="M173.632,177.8a.3.3,0,0,1-.216-.09l-.577-.577a1.665,1.665,0,0,1,0-2.355.306.306,0,0,1,.433.434,1.053,1.053,0,0,0,0,1.488l.361.361,7.071-7.07-.361-.361a1.055,1.055,0,0,0-1.489,0,.306.306,0,0,1-.433-.434,1.669,1.669,0,0,1,2.355,0l.577.577a.3.3,0,0,1,0,.433l-7.5,7.5a.3.3,0,0,1-.216.09Z" transform="translate(-172.352 -168.053)" fill="#fff"/>
    <path id="Path_5339" data-name="Path 5339" d="M455.678,168.714a.3.3,0,0,1-.216-.09l-7.5-7.5a.306.306,0,0,1,0-.433l.577-.577a1.669,1.669,0,0,1,2.355,0,.306.306,0,0,1-.433.434,1.054,1.054,0,0,0-1.489,0l-.361.36,7.071,7.071.36-.36a1.053,1.053,0,0,0,0-1.489.306.306,0,0,1,.433-.434,1.664,1.664,0,0,1,0,2.355l-.577.577a.306.306,0,0,1-.218.09Z" transform="translate(-427.83 -159.623)" fill="#fff"/>
    <g id="Ellipse_1170" data-name="Ellipse 1170" transform="translate(-8.059 -11.504)" fill="none" stroke="#fff" stroke-width="1">
      <circle cx="22" cy="22" r="22" stroke="none"/>
      <circle cx="22" cy="22" r="21.5" fill="none"/>
    </g>
  </g>
</svg>
