<svg xmlns="http://www.w3.org/2000/svg" width="25" height="23.613" viewBox="0 0 25 23.613">
  <g id="noun-excel-1194546" transform="translate(-172.873 -125.5)">
    <path id="Path_5218" data-name="Path 5218" d="M190.394,145.791V125.5h-2.012c-5.168.76-10.322,1.463-15.508,2.193v19.192c5.1.734,10.271,1.467,15.406,2.227h2.1v-3.322Zm-7.6-4.212a29.2,29.2,0,0,1-1.69-3.444c-.467,1.114-1.111,2.163-1.639,3.254-.738,0-1.475-.034-2.213-.057.864-1.38,1.7-2.771,2.591-4.139-.756-1.414-1.592-2.8-2.372-4.2l2.232-.1c.5,1.072,1.051,2.132,1.466,3.231.467-1.167,1.107-2.281,1.676-3.391q1.144-.064,2.292-.114-1.345,2.25-2.713,4.512c.934,1.52,1.867,3.06,2.8,4.6-.812-.053-1.62-.095-2.433-.145Z" fill="#164396"/>
    <path id="Path_5219" data-name="Path 5219" d="M393.23,164.25v1.36H396.8v2.007H393.23v1.1H396.8v2.007H393.23v1.1H396.8v2H393.23v1.1H396.8v1.989H393.23v1.165H396.8v1.943H393.23v1.36h12.334V164.25Zm9.612,15.792h-5.191V178.1h5.191Zm0-3.108h-5.191v-2.007h5.191Zm0-3.108h-5.191v-2h5.191Zm0-3.108h-5.191v-2h5.191Zm0-3.108h-5.191v-2h5.191Z" transform="translate(-207.691 -35.52)" fill="#164396"/>
  </g>
</svg>
