<svg xmlns="http://www.w3.org/2000/svg" width="50" height="49.109" viewBox="0 0 50 49.109">
  <g id="user-svgrepo-com_1_" data-name="user-svgrepo-com (1)" transform="translate(0.005 -0.523)">
    <path id="Path_5454" data-name="Path 5454" d="M55.334,53.465l-5.141-5.377a9.338,9.338,0,1,0-1.273,1.162l5.169,5.406a.862.862,0,1,0,1.244-1.191ZM35.747,41.843a7.576,7.576,0,1,1,7.576,7.576A7.576,7.576,0,0,1,35.747,41.843Z" transform="translate(-5.602 -5.315)" fill="#164396"/>
    <path id="Path_5455" data-name="Path 5455" d="M23.256,45.348c-.536,0-1.072-.026-1.6-.066l-.276-.021c-.536-.047-1.072-.11-1.6-.2l-.07-.012a21.477,21.477,0,0,1-3.289-.822l-.1-.034c-.531-.181-1.058-.381-1.574-.6h-.011c-.488-.211-.968-.444-1.442-.69l-.185-.095c-.432-.234-.856-.487-1.272-.747l-.367-.236c-.384-.251-.766-.513-1.132-.79l-.112-.087.081-.046L17,37.254a3.578,3.578,0,0,0,1.865-3.142V31.065l-.194-.236a14.125,14.125,0,0,1-2.537-5.258l-.077-.335-.288-.187a1.4,1.4,0,0,1-.651-1.177v-3a1.377,1.377,0,0,1,.472-1.035l.279-.253V14.763a5.1,5.1,0,0,1,1.181-3.688c1.225-1.394,3.318-2.1,6.226-2.1s4.985.7,6.212,2.086a5.182,5.182,0,0,1,1.194,3.707v4.822l.279.253a1.377,1.377,0,0,1,.472,1.035v3a1.413,1.413,0,0,1-1,1.333.846.846,0,1,0,.5,1.616,3.078,3.078,0,0,0,2.191-2.948v-3a3.078,3.078,0,0,0-.75-2V14.922a6.823,6.823,0,0,0-1.592-4.96c-1.559-1.778-4.081-2.68-7.5-2.68s-5.939.9-7.5,2.68a6.825,6.825,0,0,0-1.592,4.96v3.948a3.083,3.083,0,0,0-.75,2v3a3.077,3.077,0,0,0,1.118,2.387,15.9,15.9,0,0,0,2.615,5.4v2.449a1.887,1.887,0,0,1-.983,1.656L9.5,39.416a6.113,6.113,0,0,0-.635.4A21.562,21.562,0,1,1,44.82,23.777a.845.845,0,1,0,1.684,0A23.252,23.252,0,1,0,7.551,40.913l-.023.02.755.637c.049.041.1.075.153.116.4.332.816.647,1.239.953.136.1.274.2.413.294q.677.467,1.389.886l.306.179c.519.3,1.047.574,1.589.829l.119.054a23.04,23.04,0,0,0,5.624,1.781l.153.028c.612.106,1.225.19,1.857.246l.23.018c.626.051,1.257.084,1.9.084a.846.846,0,0,0,0-1.691Z" transform="translate(0 0)" fill="#164396"/>
  </g>
</svg>
