<svg xmlns="http://www.w3.org/2000/svg" width="46.3" height="46.3" viewBox="0 0 46.3 46.3">
  <g id="noun-port-1641318_1_" data-name="noun-port-1641318 (1)" transform="translate(-158 -88)">
    <path id="Path_5448" data-name="Path 5448" d="M200.863,134.3H161.436A3.44,3.44,0,0,1,158,130.863V91.436A3.44,3.44,0,0,1,161.436,88h39.427a3.44,3.44,0,0,1,3.436,3.436v39.427A3.44,3.44,0,0,1,200.863,134.3ZM161.436,89.929a1.509,1.509,0,0,0-1.507,1.507v39.427a1.509,1.509,0,0,0,1.507,1.507h39.427a1.509,1.509,0,0,0,1.507-1.507V91.436a1.509,1.509,0,0,0-1.507-1.507Z" fill="#164396"/>
    <path id="Path_5449" data-name="Path 5449" d="M236.584,174.452h-7.453a.965.965,0,0,1-.965-.965v-4.131h-4.677a.965.965,0,0,1-.965-.965v-2.509h-4.753a.965.965,0,0,1-.965-.965V141.875a.965.965,0,0,1,.965-.965h30.19a.965.965,0,0,1,.965.965v23.044a.965.965,0,0,1-.965.965h-4.8v2.509a.965.965,0,0,1-.965.965h-4.649v4.131a.965.965,0,0,1-.965.965Zm-6.488-1.929h5.524v-4.131a.965.965,0,0,1,.965-.965h4.649v-2.509a.965.965,0,0,1,.965-.965H247V142.839H218.736v21.115h4.753a.965.965,0,0,1,.965.965v2.509h4.677a.965.965,0,0,1,.965.965Z" transform="translate(-51.716 -46.531)" fill="#164396"/>
    <path id="Path_5450" data-name="Path 5450" d="M342.965,146.892a.965.965,0,0,1-.965-.965v-4.066a.965.965,0,0,1,1.929,0v4.066A.965.965,0,0,1,342.965,146.892Z" transform="translate(-161.815 -46.519)" fill="#164396"/>
    <path id="Path_5451" data-name="Path 5451" d="M342.965,146.892a.965.965,0,0,1-.965-.965v-4.066a.965.965,0,0,1,1.929,0v4.066A.965.965,0,0,1,342.965,146.892Z" transform="translate(-161.815 -46.519)" fill="#164396"/>
    <path id="Path_5452" data-name="Path 5452" d="M282.265,146.892a.965.965,0,0,1-.965-.965v-4.066a.965.965,0,0,1,1.929,0v4.066A.965.965,0,0,1,282.265,146.892Z" transform="translate(-108.433 -46.519)" fill="#164396"/>
    <path id="Path_5453" data-name="Path 5453" d="M403.665,146.892a.965.965,0,0,1-.965-.965v-4.066a.965.965,0,0,1,1.929,0v4.066A.965.965,0,0,1,403.665,146.892Z" transform="translate(-215.196 -46.519)" fill="#164396"/>
  </g>
</svg>
