<svg xmlns="http://www.w3.org/2000/svg" width="18.15" height="18.143" viewBox="0 0 18.15 18.143">
  <g id="noun-personal-blacklist-2392351" transform="translate(-197.398 -127.46)">
    <path id="Path_5056" data-name="Path 5056" d="M322.833,205.634a1.9,1.9,0,0,0-3.74-.489l2.325,2.328a1.9,1.9,0,0,0,1.415-1.838Z" transform="translate(-114.458 -71.733)" fill="#fff"/>
    <path id="Path_5057" data-name="Path 5057" d="M365.675,274.006v-.623a1.906,1.906,0,0,0-1.9-1.9h-.789l2.687,2.684Z" transform="translate(-155.743 -135.46)" fill="#fff"/>
    <path id="Path_5058" data-name="Path 5058" d="M383.38,336.2h1.269l-1.269-1.269Z" transform="translate(-174.922 -195.136)" fill="#fff"/>
    <path id="Path_5059" data-name="Path 5059" d="M291.82,273.654V276.8H293.3v-2.2c0-.177.087-.323.193-.323s.193.143.193.323v2.2h3.2v-1.652l-3.377-3.373A1.9,1.9,0,0,0,291.82,273.654Z" transform="translate(-88.807 -135.731)" fill="#fff"/>
    <path id="Path_5060" data-name="Path 5060" d="M206.473,127.46a9.035,9.035,0,0,0-5.741,2.051c-.057.05-.12.1-.173.15s-.117.1-.173.153c-.22.2-.433.413-.633.633l-.153.173c-.05.057-.1.113-.147.173a9.069,9.069,0,0,0,12.761,12.761c.057-.046.117-.1.173-.15s.117-.1.173-.153c.22-.2.433-.413.63-.63.053-.057.1-.113.153-.173s.1-.117.15-.177a9.065,9.065,0,0,0-7.02-14.813Zm5,15.029c-.063.053-.12.1-.183.15a7.778,7.778,0,0,1-10.923-10.93c.05-.06.093-.12.147-.18s.1-.113.15-.173l4.669,4.669,2.744,2.747,1.852,1.852,1.715,1.718c-.053.05-.11.1-.17.147Zm1.1-1.135c-.05.063-.1.12-.147.18s-.1.117-.15.177l-5.685-5.685-.226-.226-1.8-1.795-3.28-3.277c.06-.053.117-.1.177-.15s.12-.1.18-.143a7.776,7.776,0,0,1,10.926,10.92Z" transform="translate(0 0)" fill="#fff"/>
  </g>
</svg>
