<svg xmlns="http://www.w3.org/2000/svg" width="18.497" height="14.798" viewBox="0 0 18.497 14.798">
  <path id="money-check-edit" d="M6.207,11.743a.927.927,0,0,1-.658.275H3.7a.925.925,0,0,1-.925-.925V9.244a.925.925,0,0,1,.275-.658L11.368.344a1.189,1.189,0,0,1,1.683,0l1.4,1.4a1.2,1.2,0,0,1,.349.85,1.176,1.176,0,0,1-.357.841Zm3.924-8.858L3.7,9.244v1.85h1.85L11.9,4.66,10.131,2.885ZM13.8,2.4,12.4,1A.266.266,0,0,0,12.208.92.26.26,0,0,0,12.022,1L10.735,2.285l1.773,1.774L13.8,2.772A.265.265,0,0,0,13.8,2.4Zm1,9.391a.231.231,0,0,1-.231.231H7.237l.916-.925h6.413a.231.231,0,0,1,.231.231Zm-.231-2.543H9.986l.916-.925h3.664a.231.231,0,0,1,.231.231v.462A.231.231,0,0,1,14.567,9.244ZM.925,3.695H6.672l-.934.925H.925v9.249H17.573V4.619H14.567l.52-.524a2.117,2.117,0,0,0,.314-.4h2.171a.925.925,0,0,1,.925.925v9.249a.925.925,0,0,1-.925.925H.925A.925.925,0,0,1,0,13.868V4.619A.925.925,0,0,1,.925,3.695Z" transform="translate(0 0.005)" fill="#fff"/>
</svg>
