<svg xmlns="http://www.w3.org/2000/svg" width="33" height="33" viewBox="0 0 33 33">
  <g id="noun-personal-blacklist-2392351" transform="translate(-196.898 -126.96)">
    <path id="Path_5056" data-name="Path 5056" d="M326.773,207.641a3.905,3.905,0,0,0-7.68-1.005l4.774,4.781a3.906,3.906,0,0,0,2.906-3.776Z" transform="translate(-109.482 -68.611)" fill="#164396"/>
    <path id="Path_5057" data-name="Path 5057" d="M368.507,276.663v-1.279a3.915,3.915,0,0,0-3.9-3.9h-1.621L368.507,277Z" transform="translate(-148.726 -129.35)" fill="#164396"/>
    <path id="Path_5058" data-name="Path 5058" d="M383.38,337.54h2.606l-2.606-2.606Z" transform="translate(-166.724 -185.981)" fill="#164396"/>
    <path id="Path_5059" data-name="Path 5059" d="M291.82,275.637v6.457h3.03v-4.514c0-.363.178-.664.4-.664s.4.294.4.664v4.514h6.573V278.7l-6.935-6.928A3.9,3.9,0,0,0,291.82,275.637Z" transform="translate(-85.153 -130.129)" fill="#164396"/>
    <path id="Path_5060" data-name="Path 5060" d="M213.4,127.46a15.926,15.926,0,0,0-10.122,3.618c-.1.088-.211.17-.306.264s-.206.176-.305.27c-.387.352-.763.728-1.116,1.116l-.27.305c-.088.1-.177.2-.258.306a15.992,15.992,0,0,0,22.5,22.508c.1-.082.206-.17.306-.264s.206-.176.305-.27c.387-.352.763-.729,1.11-1.11.094-.1.182-.2.27-.305s.176-.206.264-.311A15.99,15.99,0,0,0,213.4,127.46Zm8.819,26.509c-.111.094-.211.176-.323.264a13.717,13.717,0,0,1-19.259-19.278c.088-.106.164-.211.258-.317s.17-.2.264-.305l8.232,8.235,4.838,4.846,3.265,3.266,3.024,3.031c-.094.088-.194.176-.3.259Zm1.943-2c-.088.111-.17.211-.258.317s-.176.206-.264.311l-10.023-10.027-.4-.4L210.051,139l-5.783-5.78c.106-.094.206-.176.311-.264s.211-.17.317-.252a13.712,13.712,0,0,1,19.264,19.26Z" transform="translate(0 0)" fill="none" stroke="#164396" stroke-width="1"/>
  </g>
</svg>
