<svg xmlns="http://www.w3.org/2000/svg" width="32" height="32.001" viewBox="0 0 32 32.001">
  <g id="noun-number-pad-2278321" transform="translate(-70)">
    <path id="Path_5456" data-name="Path 5456" d="M321.882,249.2a1.806,1.806,0,1,1-1.806-1.806,1.806,1.806,0,0,1,1.806,1.806" transform="translate(-234.076 -233.249)" fill="#164396"/>
    <path id="Path_5457" data-name="Path 5457" d="M321.885,162.826a1.806,1.806,0,1,1-1.806-1.806,1.806,1.806,0,0,1,1.806,1.806" transform="translate(-234.079 -151.814)" fill="#164396"/>
    <path id="Path_5458" data-name="Path 5458" d="M321.882,337.326a1.806,1.806,0,1,1-1.806-1.806,1.806,1.806,0,0,1,1.806,1.806" transform="translate(-234.076 -316.338)" fill="#164396"/>
    <path id="Path_5459" data-name="Path 5459" d="M415.305,249.2a1.806,1.806,0,1,1-1.806-1.806,1.806,1.806,0,0,1,1.806,1.806" transform="translate(-322.158 -233.249)" fill="#164396"/>
    <path id="Path_5460" data-name="Path 5460" d="M415.305,162.826a1.806,1.806,0,1,1-1.806-1.806,1.806,1.806,0,0,1,1.806,1.806" transform="translate(-322.158 -151.814)" fill="#164396"/>
    <path id="Path_5461" data-name="Path 5461" d="M415.305,337.326a1.806,1.806,0,1,1-1.806-1.806,1.806,1.806,0,0,1,1.806,1.806" transform="translate(-322.158 -316.338)" fill="#164396"/>
    <path id="Path_5462" data-name="Path 5462" d="M228.455,249.2a1.806,1.806,0,1,1-1.806-1.806,1.806,1.806,0,0,1,1.806,1.806" transform="translate(-145.991 -233.249)" fill="#164396"/>
    <path id="Path_5463" data-name="Path 5463" d="M228.455,162.829a1.806,1.806,0,1,1-1.806-1.806,1.806,1.806,0,0,1,1.806,1.806" transform="translate(-145.991 -151.817)" fill="#164396"/>
    <path id="Path_5464" data-name="Path 5464" d="M228.455,337.326a1.806,1.806,0,1,1-1.806-1.806,1.806,1.806,0,0,1,1.806,1.806" transform="translate(-145.991 -316.338)" fill="#164396"/>
    <path id="Path_5465" data-name="Path 5465" d="M86,0A16.021,16.021,0,1,0,97.308,4.693,16,16,0,0,0,86,0Zm0,30.93a14.948,14.948,0,1,1,10.552-4.378A14.928,14.928,0,0,1,86,30.93Z" transform="translate(0 0)" fill="#164396"/>
  </g>
</svg>
