<svg xmlns="http://www.w3.org/2000/svg" width="40" height="38" viewBox="0 0 40 38">
  <g id="Group_9542" data-name="Group 9542" transform="translate(-1248 -176)">
    <g id="Rectangle_280" data-name="Rectangle 280" transform="translate(1248 176)" fill="#fff" stroke="#1fa8e3" stroke-width="1">
      <rect width="40" height="38" rx="6" stroke="none"/>
      <rect x="0.5" y="0.5" width="39" height="37" rx="5.5" fill="none"/>
    </g>
    <path id="file-excel-svgrepo-com" d="M15.534,1.361,14.309,0H4.662A.9.9,0,0,0,3.7.919V4.55H5.05v-2.9a.286.286,0,0,1,.28-.284h6.9c.152,0,.228.027.228.151V6.34h4.914c.193,0,.268.1.268.247V18.355c0,.247-.1.284-.25.284H5.33a.287.287,0,0,1-.28-.284V17.28H3.706v1.695A.9.9,0,0,0,4.662,20h13.4A.888.888,0,0,0,19,19.031V5.187l-.35-.379Zm-1.7.159.387.434,2.6,2.854.143.173H14.309q-.3,0-.38-.1a.555.555,0,0,1-.093-.314Zm-1.091,9.148h4.578V12H12.745Zm0-2.667h4.578V9.334H12.745Zm0,5.334h4.578v1.333H12.745ZM1,5.626V16.293H11.465V5.626Zm5.233,6.2-.641.977h.641V14H3.016l2.336-3.508L3.282,7.334H5.01L6.234,9.17,7.457,7.334H9.184L7.112,10.49,9.449,14H7.656Z" transform="translate(1258 185)" fill="#1fa8e3"/>
  </g>
</svg>
