<svg xmlns="http://www.w3.org/2000/svg" width="25.915" height="17" viewBox="0 0 25.915 17">
  <g id="noun-connect-1894018" transform="translate(-86.397 -106.818)">
    <path id="Path_5149" data-name="Path 5149" d="M92.013,143.262q0,.113-.008.226a.357.357,0,0,1-.011.11s.021-.137,0-.032a3.214,3.214,0,0,1-.1.422c-.016.048-.035.169-.075.2.035-.032.04-.089.011-.03-.016.032-.03.064-.046.1a3.085,3.085,0,0,1-.218.363l-.021.03c-.035.046-.027.038.021-.024,0,.019-.043.054-.056.067-.04.048-.083.1-.129.142s-.083.083-.126.124l-.078.07-.054.046c-.046.035-.038.03.027-.019-.005.027-.115.083-.145.1-.059.038-.118.075-.18.11a1.755,1.755,0,0,1-.158.081l-.032.016c-.054.024-.043.019.03-.011a.423.423,0,0,1-.134.051,3.077,3.077,0,0,1-.381.1l-.073.013c-.011,0-.024,0-.035.005-.059.008-.048.008.032,0-.027.03-.18.016-.223.019a3.5,3.5,0,0,1-.411-.013c-.129-.011.124.024,0,0l-.107-.019c-.07-.013-.142-.032-.212-.051s-.137-.043-.2-.067l-.083-.032c-.073-.024.121.056.013.005a3.318,3.318,0,0,1-.371-.2c-.03-.019-.059-.04-.086-.059-.011-.008-.107-.064-.03-.021s-.016-.013-.027-.024c-.027-.021-.054-.046-.081-.07a3.123,3.123,0,0,1-.293-.3.188.188,0,0,1-.021-.027c-.035-.046-.03-.038.019.027a.245.245,0,0,1-.04-.056,2.008,2.008,0,0,1-.115-.177c-.03-.051-.059-.1-.086-.153-.016-.032-.032-.064-.048-.094s-.019-.043-.03-.064c.03.075.035.083.013.03a3.053,3.053,0,0,1-.118-.376c-.013-.059-.027-.118-.038-.177,0-.011,0-.024-.005-.035-.008-.059-.008-.048,0,.032-.016-.016-.011-.1-.013-.129a2.768,2.768,0,0,1,0-.395c0-.038.005-.075.011-.11.011-.129-.024.124,0,0,.013-.073.027-.142.043-.215a3.054,3.054,0,0,1,.118-.376c.043-.118-.054.11,0,0,.016-.032.03-.064.046-.1.032-.062.067-.126.1-.185s.075-.118.115-.177a.341.341,0,0,1,.04-.056l-.04.054c.013-.019.03-.038.043-.054a2.837,2.837,0,0,1,.293-.3c.027-.024.1-.107.134-.113l-.054.04.056-.04c.03-.021.056-.04.086-.059a3.318,3.318,0,0,1,.371-.2c.091-.043-.027.008-.03.011a.317.317,0,0,1,.1-.038c.067-.024.137-.046.2-.067s.115-.03.175-.043c.035-.008.073-.013.107-.021a.675.675,0,0,1,.073-.011c-.075.011-.094.013-.051.008a3.5,3.5,0,0,1,.411-.016c.067,0,.137.008.2.013.129.011-.124-.021,0,0l.107.019a2.856,2.856,0,0,1,.448.129l.032.013c.054.021.043.019-.03-.013.016-.008.1.046.113.054.07.035.137.07.2.11s.118.075.177.115l.03.021c.046.035.038.027-.024-.021.03.005.086.07.107.089a3.1,3.1,0,0,1,.3.3c.013.016.064.062.067.081-.048-.062-.054-.07-.021-.024l.04.056q.06.089.113.177c.043.073.081.145.115.218a.328.328,0,0,1,.03.064c-.03-.075-.035-.083-.013-.03l.024.067a2.674,2.674,0,0,1,.124.451c.005.03.011.059.016.091s0,.024-.008-.051l.008.073a1.278,1.278,0,0,1,.024.252.537.537,0,1,0,1.074,0,3.39,3.39,0,0,0-2.215-3.147,3.35,3.35,0,0,0-3.682.991,3.443,3.443,0,0,0-.781,1.915,3.3,3.3,0,0,0,.465,1.96,3.387,3.387,0,0,0,3.547,1.555,3.345,3.345,0,0,0,2.616-2.7,3.677,3.677,0,0,0,.051-.569.537.537,0,1,0-1.074,0Z" transform="translate(0 -31.475)" fill="#fff"/>
    <path id="Path_5150" data-name="Path 5150" d="M216.76,287.951c0,.089,0,.175-.008.263,0,.048-.008.1-.013.148,0,.016-.011.081,0,0s0,.019-.005.038a3.583,3.583,0,0,1-.129.526c-.027.081-.056.156-.086.234s.046-.094-.008.019c-.021.048-.046.1-.07.142a3.67,3.67,0,0,1-.274.451c-.013.016-.086.132-.04.059s-.027.035-.046.056a2.285,2.285,0,0,1-.188.207q-.085.089-.177.169l-.091.081c-.024.019-.134.1-.07.056s-.04.03-.059.04c-.038.027-.078.054-.115.078-.073.048-.15.094-.226.137s-.156.083-.236.121l-.048.021c-.064.035.1-.038.03-.013-.046.016-.089.035-.132.051a3.536,3.536,0,0,1-.518.145l-.126.024a.667.667,0,0,0-.073.011s.113-.013.051-.008c-.1.008-.2.019-.3.021a4.032,4.032,0,0,1-.54-.021c-.1-.011.03.008.032.005a.294.294,0,0,1-.073-.011c-.043-.008-.083-.013-.126-.024-.089-.019-.177-.038-.263-.064s-.172-.051-.255-.083c-.04-.013-.078-.03-.115-.046-.073-.03.016.019.03.013a.23.23,0,0,1-.064-.03,3.366,3.366,0,0,1-.462-.255c-.035-.021-.193-.1-.2-.142.005.021.083.067.027.019-.019-.016-.038-.03-.054-.043-.035-.03-.07-.059-.1-.091a3.715,3.715,0,0,1-.363-.379c-.016-.021-.086-.121-.046-.056s-.03-.04-.04-.059c-.054-.075-.1-.156-.153-.236a2.4,2.4,0,0,1-.118-.215c-.019-.038-.038-.075-.054-.11s-.019-.043-.03-.064c-.032-.062.048.126.005.013a4.075,4.075,0,0,1-.164-.513c-.019-.083-.038-.167-.051-.25l-.008-.054c-.013-.073.011.107.005.032-.005-.048-.011-.1-.013-.148a3.915,3.915,0,0,1,0-.561c0-.043.008-.086.013-.129.011-.1-.008.03-.005.032a.294.294,0,0,1,.011-.073c.013-.089.032-.18.054-.266a4.35,4.35,0,0,1,.166-.51c.021-.056-.019.048-.019.046a.328.328,0,0,1,.03-.064c.016-.038.035-.075.054-.113.043-.083.089-.167.137-.247s.089-.14.134-.207c.013-.019.051-.1.073-.1,0,0-.083.1-.019.027.016-.019.03-.038.043-.054a4.023,4.023,0,0,1,.363-.379c.035-.032.07-.062.1-.091.019-.013.126-.089.056-.046s.038-.027.059-.04c.038-.027.078-.054.115-.078a3.524,3.524,0,0,1,.462-.255.328.328,0,0,1,.064-.03s-.1.04-.046.019c.038-.013.078-.03.115-.046.089-.032.18-.062.271-.089s.164-.043.247-.059c.048-.011.1-.019.142-.027l.054-.008c.067-.011-.118.013-.016,0a3.884,3.884,0,0,1,.559-.019c.086,0,.172.011.258.019s-.1-.016.021,0c.054.008.107.019.161.03a3.68,3.68,0,0,1,.5.142c.04.013.078.03.115.046.1.038-.027-.013-.03-.013a.289.289,0,0,1,.064.03c.081.038.158.078.236.121s.153.089.226.137c.035.021.067.046.1.07s.14.091.072.051.038.03.056.046l.094.081q.1.093.2.193c.056.059.11.121.164.183.016.019.072.07.078.094-.005-.04-.059-.081-.021-.024.016.024.035.048.051.07a3.683,3.683,0,0,1,.271.454c.019.038.038.075.054.113.008.016.013.032.021.048.032.064-.038-.1-.013-.03s.064.167.091.252a3.583,3.583,0,0,1,.129.526.294.294,0,0,1,.011.073s-.016-.137-.005-.032c.005.043.008.086.013.129,0,.1.005.191.005.285a.537.537,0,0,0,1.074,0,4.166,4.166,0,0,0-.749-2.379,4.266,4.266,0,0,0-2.014-1.539,4.172,4.172,0,0,0-4.581,1.249,4.251,4.251,0,0,0-.959,2.368,4.148,4.148,0,0,0,2.393,4.068,4.293,4.293,0,0,0,2.6.3,4.17,4.17,0,0,0,3.257-3.376,5.07,5.07,0,0,0,.062-.7.54.54,0,0,0-.537-.537A.553.553,0,0,0,216.76,287.951Z" transform="translate(-117.075 -168.285)" fill="#fff"/>
    <path id="Path_5151" data-name="Path 5151" d="M422.695,109.822c0,.062,0,.126-.008.188,0,.03-.005.062-.008.091-.008.081.024-.137,0-.016a2.692,2.692,0,0,1-.086.352.578.578,0,0,1-.062.169c.021-.011.046-.1.011-.03-.016.032-.03.064-.046.1a2.427,2.427,0,0,1-.183.3c-.005.008-.078.1-.022.03s-.016.019-.024.027c-.038.046-.078.089-.118.129s-.067.067-.1.1l-.078.07a.188.188,0,0,1-.027.021c-.046.035-.038.03.027-.019-.005.027-.124.086-.145.1a2.631,2.631,0,0,1-.279.153l-.032.016c-.054.024-.043.019.03-.011-.008.016-.086.032-.1.038a3.159,3.159,0,0,1-.311.089c-.035.008-.073.013-.107.021-.075.016.013.013.035,0-.027.027-.188.016-.223.016-.113,0-.223-.005-.336-.013-.129-.011.124.024,0,0l-.073-.013c-.064-.013-.129-.03-.193-.046s-.1-.032-.153-.048c-.016-.005-.094-.024-.1-.038,0,0,.124.056.03.011a2.559,2.559,0,0,1-.325-.18c-.024-.016-.124-.064-.129-.091l.054.04a.438.438,0,0,1-.054-.046l-.054-.046a2.413,2.413,0,0,1-.244-.252.186.186,0,0,1-.021-.027c-.035-.046-.03-.038.019.027a.32.32,0,0,1-.04-.056,1.745,1.745,0,0,1-.1-.148c-.03-.051-.059-.1-.086-.153l-.032-.064c-.011-.021-.019-.043-.03-.064.008.021.019.043.027.062-.027-.013-.051-.137-.062-.169-.019-.056-.035-.115-.048-.175s-.024-.107-.032-.161,0-.115,0,.016c0-.035-.008-.075-.011-.11a2.51,2.51,0,0,1,0-.376.66.66,0,0,0,.005-.075c.011-.124-.019.094,0,.016s.024-.132.04-.2c.027-.11.07-.215.1-.325.022-.073-.059.121-.005.013.011-.021.019-.043.03-.064a2.047,2.047,0,0,1,.1-.185,1.728,1.728,0,0,1,.1-.148.388.388,0,0,1,.04-.056c-.035.008-.07.083-.008.013a3.39,3.39,0,0,1,.255-.266c.021-.019.145-.121.081-.07s.064-.043.089-.062a2.779,2.779,0,0,1,.338-.188c.067-.032-.019-.008-.03.011.008-.013.067-.027.083-.032.051-.019.1-.035.153-.051s.115-.032.175-.043a.687.687,0,0,1,.073-.013.675.675,0,0,1,.073-.011c-.075.011-.094.011-.051.008a2.608,2.608,0,0,1,.354-.013c.062,0,.124.008.185.013.107.008-.032-.005-.032-.005s.107.019.126.021a3.1,3.1,0,0,1,.381.11c.094.032.013-.019-.013-.008a.524.524,0,0,1,.1.046,2.048,2.048,0,0,1,.185.1,1.741,1.741,0,0,1,.148.1l.03.021c.046.035.038.027-.024-.021.016,0,.07.056.081.067a2.609,2.609,0,0,1,.271.274.476.476,0,0,1,.046.054c-.048-.062-.054-.07-.021-.024a.415.415,0,0,1,.03.043c.038.054.073.107.1.164s.07.124.1.188a.328.328,0,0,1,.03.064c-.03-.075-.035-.083-.013-.03.005.011.008.021.013.032a2.368,2.368,0,0,1,.107.381.411.411,0,0,1,.019.107l-.008-.07.008.073c0,.083,0,.158,0,.234a.537.537,0,0,0,1.074,0,3.052,3.052,0,0,0-2-2.83,3.008,3.008,0,0,0-3.292.889,3.1,3.1,0,0,0-.709,1.754,2.952,2.952,0,0,0,.422,1.732,3,3,0,0,0,5.578-1.547.536.536,0,1,0-1.072,0Z" transform="translate(-315.091)" fill="#fff"/>
    <path id="Path_5152" data-name="Path 5152" d="M178.876,243.25l2.385,2.581c.11.121.223.242.333.36a.537.537,0,0,0,.76-.76l-2.385-2.581c-.11-.121-.223-.242-.333-.36a.537.537,0,1,0-.76.76Z" transform="translate(-87.792 -128.863)" fill="#fff"/>
    <path id="Path_5153" data-name="Path 5153" d="M339.093,206.987l1.579-1.778q1.257-1.414,2.514-2.83l.572-.645a.537.537,0,1,0-.76-.76l-1.579,1.778q-1.257,1.414-2.514,2.83l-.572.645a.537.537,0,0,0,.76.76Z" transform="translate(-239.418 -89.386)" fill="#fff"/>
    <path id="Path_5154" data-name="Path 5154" d="M544.734,249.739c0,.032,0,.062,0,.094,0,.078.03-.134,0-.016a1.18,1.18,0,0,1-.035.14c0,.011-.008.021-.011.035-.016.043-.016.046,0,0,.005-.011.008-.021.013-.032-.011.021-.019.043-.03.064a.678.678,0,0,1-.091.15c-.005,0,.075-.086.019-.027-.019.021-.038.043-.059.064s-.094.107-.115.1c0,0,.094-.062.024-.021a.442.442,0,0,0-.059.038c-.024.016-.051.027-.078.043a.378.378,0,0,1-.048.021c.07-.03.083-.035.046-.021s-.1.032-.156.043a.438.438,0,0,1-.073.013c.016.016.121-.011.013-.008a.889.889,0,0,0-.169,0c.062-.019.1.019.035.005-.035-.008-.07-.013-.1-.024a.528.528,0,0,0-.086-.027c-.07-.008.113.059.013.005-.04-.021-.083-.043-.124-.067-.011-.005-.019-.013-.03-.019-.038-.027-.038-.027,0,0,.008.008.019.013.027.021-.019-.013-.035-.03-.054-.046a1.342,1.342,0,0,1-.121-.126c-.07-.075.021.024.019.027s-.043-.064-.048-.073-.083-.121-.073-.14c0,0,.038.11.016.03-.008-.03-.019-.056-.027-.086s-.013-.059-.019-.089c-.024-.1,0,.113,0,0v-.15c0-.11-.005.035-.008.032s.013-.078.016-.089a.88.88,0,0,1,.046-.156s-.051.1-.013.03l.048-.094a.718.718,0,0,0,.048-.075c.024-.064-.086.094-.011.011.032-.035.062-.07.1-.1s.046-.038.064-.056c.051-.051-.11.067-.011.011.051-.03.1-.059.153-.086.091-.048-.03.016-.03.013a.467.467,0,0,1,.086-.027c.051-.016.107-.019.158-.035-.113.032-.075.008-.032.008l.094,0a.348.348,0,0,1,.094.005c0-.011-.129-.024,0,0,.016,0,.172.035.172.051s-.1-.051-.029-.013l.094.048c.019.011.04.027.059.038.1.054-.073-.07,0,0,.048.043.091.089.137.134.075.081-.008-.013-.008-.013a.558.558,0,0,1,.056.089c.011.021.024.04.035.062l.024.048c.016.038.011.021-.019-.046a.928.928,0,0,1,.051.172l.008.035h0c-.005-.048-.008-.046,0,0a.755.755,0,0,0,0,.078.537.537,0,1,0,1.074,0,1.8,1.8,0,0,0-1.2-1.67,1.768,1.768,0,0,0-1.915.526,1.765,1.765,0,1,0,3.107,1.147.536.536,0,0,0-1.072,0Z" transform="translate(-433.496 -134.224)" fill="#fff"/>
    <path id="Path_5155" data-name="Path 5155" d="M504.335,197.13q1.027,1.14,2.057,2.277l.29.32a.541.541,0,0,0,.76,0,.551.551,0,0,0,0-.76q-1.027-1.14-2.057-2.277l-.29-.32a.541.541,0,0,0-.76,0A.551.551,0,0,0,504.335,197.13Z" transform="translate(-397.271 -85.007)" fill="#fff"/>
  </g>
</svg>
