<svg id="noun-gift-185864" xmlns="http://www.w3.org/2000/svg" width="30.278" height="36.3" viewBox="0 0 30.278 36.3">
  <path id="Path_5184" data-name="Path 5184" d="M109.972,147.568H83.645a2.213,2.213,0,0,1-1.975-2.387v-4.774a2.213,2.213,0,0,1,1.975-2.387h26.328a2.213,2.213,0,0,1,1.975,2.387v4.774a2.213,2.213,0,0,1-1.975,2.387Zm-26.328-7.956a.737.737,0,0,0-.658.8v4.774a.737.737,0,0,0,.658.8h26.328a.737.737,0,0,0,.658-.8v-4.774a.737.737,0,0,0-.658-.8Z" transform="translate(-81.67 -129.14)" fill="#164396"/>
  <path id="Path_5185" data-name="Path 5185" d="M128.867,273.777H108.223c-1.778,0-3.225-1.786-3.225-3.978V255.476a.733.733,0,0,1,.645-.8h25.8a.733.733,0,0,1,.645.8V269.8c0,2.193-1.448,3.978-3.226,3.978Zm-22.579-17.505V269.8a2.2,2.2,0,0,0,1.935,2.387h20.643A2.2,2.2,0,0,0,130.8,269.8V256.271Z" transform="translate(-103.407 -237.477)" fill="#164396"/>
  <path id="Path_5186" data-name="Path 5186" d="M234.057,34.59a8.8,8.8,0,0,1-8.39-6.254,2.313,2.313,0,0,1,.374-2.058A2.382,2.382,0,0,1,228.6,25.4a8.8,8.8,0,0,1,6.254,8.39.8.8,0,0,1-.8.8ZM227.941,26.9a.8.8,0,0,0-.624.331.733.733,0,0,0-.125.653,7.212,7.212,0,0,0,6.019,5.065,7.2,7.2,0,0,0-5.065-6.017.687.687,0,0,0-.2-.032Z" transform="translate(-218.028 -25.312)" fill="#164396"/>
  <path id="Path_5187" data-name="Path 5187" d="M339.128,34.6a.8.8,0,0,1-.8-.8,8.8,8.8,0,0,1,6.254-8.39,2.388,2.388,0,0,1,2.557.875,2.308,2.308,0,0,1,.374,2.058,8.8,8.8,0,0,1-8.39,6.253Zm6.116-7.691a.769.769,0,0,0-.2.03,7.212,7.212,0,0,0-5.065,6.019,7.2,7.2,0,0,0,6.017-5.065.726.726,0,0,0-.126-.652.788.788,0,0,0-.622-.331Z" transform="translate(-324.879 -25.327)" fill="#164396"/>
  <path id="Path_5188" data-name="Path 5188" d="M273.921,165.062a.8.8,0,0,1-.8-.8V140.724l-3.415,3.417a.8.8,0,0,1-1.125-1.125l4.774-4.774a.8.8,0,0,1,1.357.562v25.462a.8.8,0,0,1-.8.8Z" transform="translate(-258.284 -129.518)" fill="#164396"/>
  <path id="Path_5189" data-name="Path 5189" d="M343.9,144.4a.8.8,0,0,1-.563-.232l-4.774-4.774a.8.8,0,0,1,1.125-1.125l4.774,4.774a.795.795,0,0,1-.562,1.357Z" transform="translate(-324.482 -130.461)" fill="#164396"/>
</svg>
