<svg xmlns="http://www.w3.org/2000/svg" width="17.708" height="23.61" viewBox="0 0 17.708 23.61">
  <path id="Path_5220" data-name="Path 5220" d="M165.6,17.915V33.03a1.1,1.1,0,0,1-1.106,1.106H149a1.1,1.1,0,0,1-1.106-1.106v-21.4A1.1,1.1,0,0,1,149,10.527h9.219V16.8a1.109,1.109,0,0,0,1.111,1.116Zm-8.608,5.429a6.634,6.634,0,0,0,.287-2.961,1.157,1.157,0,0,0-2.208-.314,7.651,7.651,0,0,0,.373,3.55,43.338,43.338,0,0,1-1.887,3.96c-1.251.64-3.4,2.056-2.514,3.14a1.432,1.432,0,0,0,.981.461c.824,0,1.646-.829,2.816-2.851a26.171,26.171,0,0,1,3.643-1.07,6.983,6.983,0,0,0,2.944.9,1.193,1.193,0,0,0,.908-2c-.623-.638-2.485-.447-3.381-.331a4.629,4.629,0,0,1-1.962-2.483Zm-3.518,5.069c-1,1.6-1.609,1.891-1.609,1.855A6.461,6.461,0,0,1,153.476,28.413Zm4.32-2.019a16.835,16.835,0,0,0-2.9,1.011h0a21.3,21.3,0,0,0,1.31-2.892,5.968,5.968,0,0,0,1.59,1.881Zm-1.6-6.222c.388,0,.351,1.7.093,2.161A4.4,4.4,0,0,1,156.192,20.172Zm9.411-4.026v.282h-5.91v-5.9h.277a1.107,1.107,0,0,1,.785.324l4.524,4.519a1.105,1.105,0,0,1,.324.778Zm-5.714,10.578c1.86-.132,2.164.29,1.963.415C161.861,27.14,161.6,27.454,159.888,26.725Z" transform="translate(-147.894 -10.526)" fill="#c40d42"/>
</svg>
