<svg xmlns="http://www.w3.org/2000/svg" width="17.646" height="17.592" viewBox="0 0 17.646 17.592">
  <g id="_1467283543_search" data-name="1467283543_search" transform="translate(0.5 0.5)">
    <path id="Path_4919" data-name="Path 4919" d="M6.544,13.141A6.572,6.572,0,0,1,1.9,1.922a6.572,6.572,0,1,1,9.294,9.294A6.527,6.527,0,0,1,6.544,13.141Zm0-12.457A5.888,5.888,0,0,0,2.38,10.736a5.889,5.889,0,0,0,8.328-8.328A5.835,5.835,0,0,0,6.544.684Z" transform="translate(0.025)" fill="#1fa8e3" stroke="#1fa8e3" stroke-width="1"/>
    <path id="Path_4920" data-name="Path 4920" d="M333.743,334.084a.341.341,0,0,1-.243-.1l-5.276-5.276a.341.341,0,0,1,.483-.483l5.279,5.276a.342.342,0,0,1-.243.583Z" transform="translate(-317.491 -317.492)" fill="#1fa8e3" stroke="#1fa8e3" stroke-width="1"/>
  </g>
</svg>
